<?xml version="1.0" encoding="UTF-8" standalone="no"?>
<!-- Created with Inkscape (http://www.inkscape.org/) -->
<svg xmlns="http://www.w3.org/2000/svg" viewBox="0 0 792 485">
  <title>Farbe: Farbpalette zusammenstellen nach einfachen Regeln</title>
  <path d="m 327,0 0,143 416,37 13,-58 33,-67 C 775,42 716,8 687,7 640,4 541,38 477,37 412,35 331,0 331,0 z" id="path3108" style="fill:#d3cad1"/>
  <path d="m 335,69 c -2,0 -5,0 -8,0 C 263,70 23,131 0,148 l 22,142 19,186 c 0,0 386,-48 411,-50 24,-1 303,-28 303,-28 0,0 -5,-21 -9,-36 -4,-14 -80,-291 -80,-291 0,0 -75,19 -114,21 -37,2 -129,-23 -216,-23 z" id="path3106" style="fill:#deaa87"/>
  <path d="m 731,472 -87,-100 -60,51 40,54 z" id="path3110" style="fill:#fadcaa"/>
  <path d="m 591,453 c 0,0 36,-10 50,-25 14,-14 28,-49 28,-49 0,0 -38,-22 -44,-33 -5,-11 -13,-60 -13,-60 l -32,-41 -60,-15 0,7 -29,-6 c 0,0 -7,0 -9,3 -1,3 4,10 4,10 0,0 -23,-3 -31,-7 -7,-3 -13,11 -7,15 5,3 56,24 64,30 7,5 29,17 29,17 L 534,304 c 0,0 -48,-28 -65,-37 -16,-9 -23,-12 -28,-12 -5,-0 -12,6 -11,13 1,7 15,21 34,31 18,10 57,35 60,43 3,7 -5,6 -11,0 -6,-6 -33,-29 -33,-29 l -18,-11 c 0,0 -1,38 16,53 17,15 55,40 65,43 9,2 19,5 19,5 z" id="path2987" style="fill:#c1e2ee"/>
  <path d="m 311,340 c 0,0 17,18 32,25 14,7 50,5 50,5 0,0 7,-27 13,-33 6,-5 26,4 33,-39 6,-44 0,-64 0,-64 0,0 29,-17 42,-22 13,-4 35,-24 15,-21 -19,2 -51,14 -60,19 -9,5 -9,0 7,-10 16,-10 34,-33 39,-38 4,-5 -3,-30 -23,-14 -20,15 -38,44 -40,45 -2,2 -5,-1 2,-14 8,-13 27,-31 32,-38 4,-7 -1,-29 -14,-18 -13,11 -42,49 -44,53 -1,3 -2,-10 3,-18 5,-8 22,-27 23,-31 0,-3 -0,-10 -9,-7 -9,2 -27,4 -35,28 -7,24 -20,87 -20,87 l -13,75 z" id="path2989" style="fill:#99b2b4"/>
  <path d="m 344,307 c 0,0 22,27 47,6 25,-21 -0,-60 -11,-68 -10,-7 -25,-25 -25,-25 0,0 -2,-20 -3,-24 -0,-4 14,-14 14,-22 0,-8 -20,-28 -20,-28 0,0 -14,25 -18,29 -3,4 -9,9 -9,9 l -1,57 c 0,0 20,43 21,49 1,6 5,16 5,16 z" id="path2991" style="fill:#bad6e2"/>
  <path d="m 473,208 a 64,64 0 1 1 -129,0 64,64 0 1 1 129,0 z" id="path2993" style="fill:#73868d;fill-opacity:0.7;stroke:none"/>
  <path d="m 468,209 a 53,53 0 0 1 -107,0 53,53 0 1 1 107,0 z" id="path2995" style="fill:#deeccf;fill-opacity:0.7;stroke:none"/>
  <path d="m 429,179 5,21 -6,17 -11,0 10,-18 -9,-18 z" id="path2997" style="fill:#a8c2aa;fill-opacity:0.7;stroke:none"/>
  <path d="m 448,182 5,21 -6,17 -11,0 10,-18 -9,-18 z" id="path2999" style="fill:#a8c2aa;fill-opacity:0.7;stroke:none"/>
  <path d="m 410,180 5,21 -6,17 -11,0 10,-18 -9,-18 z" id="path3001" style="fill:#a8c2aa;fill-opacity:0.7;stroke:none"/>
  <path d="m 372,197 11,-9 9,0 9,14 -9,15 -18,-2 z" id="path3003" style="fill:#d1dfb0"/>
  <path d="m 396,202 a 8,8 0 0 1 -16,0 8,8 0 1 1 16,0 z" id="path3005" style="fill:#f6c17f"/>
  <path d="m 392,201 a 4,4 0 0 1 -9,0 4,4 0 1 1 9,0 z" id="path3007" style="fill:#fada7c"/>
  <path d="m 388,200 a 2,2 0 1 1 -4,0 2,2 0 1 1 4,0 z" id="path3009" style="fill:#fffce2"/>
  <path d="m 316,157 a 50,50 0 0 1 -100,0 50,50 0 1 1 100,0 z" id="path3011" style="fill:#9c8b89"/>
  <path d="m 307,150 a 37,37 0 0 1 -74,0 37,37 0 1 1 74,0 z" id="path3013" style="fill:#fffce2"/>
  <path d="m 257,135 -20,31" id="path3015" style="fill:none;stroke:#9c8b89;stroke-width:4"/>
  <path d="m 273,135 -21,32" id="path3017" style="fill:none;stroke:#9c8b89;stroke-width:4"/>
  <path d="m 288,135 -21,32" id="path3019" style="fill:none;stroke:#9c8b89;stroke-width:4"/>
  <path d="m 303,135 -21,32" id="path3021" style="fill:none;stroke:#9c8b89;stroke-width:4"/>
  <path d="m 276,265 a 15,15 0 1 1 -31,0 15,15 0 1 1 31,0 z" id="path3023" style="fill:#717278"/>
  <path d="m 283,328 a 15,15 0 1 1 -31,0 15,15 0 1 1 31,0 z" id="path3025" style="fill:#717278"/>
  <path d="m 285,258 a 16,16 0 0 1 -33,0 16,16 0 1 1 33,0 z" id="path3027" style="fill:#d3cad1"/>
  <path d="m 292,321 a 16,16 0 1 1 -33,0 16,16 0 1 1 33,0 z" id="path3029" style="fill:#d3cad1"/>
  <path d="m 548,86 a 50,50 0 0 1 -100,0 50,50 0 1 1 100,0 z" id="path3031" style="fill:#d3cad1"/>
  <path d="m 534,82.73 a 37.03,37.03 0 0 1 -74,0 37.03,37.03 0 1 1 74,0 z" id="path3033" style="fill:#f2f0f7"/>
  <path d="m 525.3,68.03 a 7.264,7.264 0 1 1 -14.5,0 7.264,7.264 0 1 1 14.5,0 z" id="path3035" style="fill:#fada7c"/>
  <path d="m 517.4,89.23 a 12.3,12.3 0 0 1 -24.6,0 12.3,12.3 0 1 1 24.6,0 z" id="path3037" style="fill:#f8caa3"/>
  <path d="m 502.3,79.43 a 12.3,12.3 0 0 1 -24.6,0 12.3,12.3 0 1 1 24.6,0 z" id="path3039" style="fill:#e3c5a8"/>
  <path d="m 639.6,177.1 a 59.2,59.2 0 0 1 -118.4,0 59.2,59.2 0 1 1 118.4,0 z" id="path3041" style="fill:#e8e5f2"/>
  <path d="m 593.8,62.93 c -5.3,21.4 -15.6,63.77 -21,83.27 -9.7,35.1 26.3,47.7 38.5,15.6 12.2,-32.2 30.3,-84.67 32.2,-90.47 6.1,-17.7 -0.9,-30.25 -14.8,-33.11 -17.1,-3.5 -29.6,3.27 -34.9,24.71 z" id="path3067" style="fill:white;fill-opacity:0.785;stroke:none"/>
  <path d="m 587.7,86.33 25.1,8.18" id="path3069" style="fill:#b9abac;fill-opacity:1;stroke:#b9abac;stroke-width:5"/>
  <path d="m 584,99.41 24.4,7.79" id="path3071" style="fill:#b9abac;fill-opacity:1;stroke:#b9abac;stroke-width:5"/>
  <path d="m 580.7,113.3 25.3,8" id="path3073" style="fill:#b9abac;fill-opacity:1;stroke:#b9abac;stroke-width:5"/>
  <path d="M 600.6,154.5 623.5,83.33" id="path3075" style="fill:none;stroke:#dcf0f9;stroke-width:5"/>
  <path d="m 646,58.33 a 24.61,21.07 0 1 1 -49.2,0 24.61,21.07 0 1 1 49.2,0 z" id="path3079" style="fill:#bad6e2;fill-opacity:0.7304;stroke:none"/>
  <path d="m 607.2,66.83 c 0,0 1,-13.2 13.2,-13 13.7,-0.5 14.1,16 14.1,16 0,0 11.1,-26.5 -12.3,-26.64 -26.4,-0.14 -15,23.64 -15,23.64 z" id="path3081" style="fill:#dcf0f9;fill-opacity:0.8089;stroke:none"/>
  <path d="m 654.9,131.7 -10,77.7 c 0,0 -23.8,21 7.2,34.2 38.7,16.5 44.3,-17.3 44.3,-17.3 l 40.3,-87.4 c 0,0 6.8,-32.5 -32.1,-37.7 -42.8,-7.09 -49.7,30.5 -49.7,30.5 z" id="path3090" style="fill:#dcf0f9;fill-opacity:0.8532;stroke:none"/>
  <path d="m 738.7,130 a 41.7,30.22 0 0 1 -83.4,0 41.7,30.22 0 1 1 83.4,0 z" id="path3083" style="fill:#819699;fill-opacity:0.7986;stroke:none"/>
  <path d="m 695.2,111.8 c -15.2,0 -27.5,8.9 -27.5,19.9 0,5.4 2.9,10.2 7.6,13.8 1.9,-8.8 9.8,-15.4 19.1,-15.4 9.7,0 17.8,7.1 19.3,16.4 5.5,-3.7 9,-8.9 9,-14.8 0,-11 -12.3,-19.9 -27.5,-19.9 z" id="path3085" style="fill:#dcf0f9;fill-opacity:0.8532;stroke:none"/>
  <path d="m 654.5,162.7 28.2,8.8" id="path3092" style="fill:none;stroke:#9c8b89;stroke-width:5"/>
  <path d="m 650.9,180.8 26.2,7.6" id="path3094" style="fill:none;stroke:#9c8b89;stroke-width:5"/>
  <path d="m 647.3,197.7 25,7.2" id="path3096" style="fill:none;stroke:#9c8b89;stroke-width:5"/>
  <path d="m 326.3,343.1 -59.2,64.8 88.2,36.3 35,-78.2 -62,-22.5 z" id="path3098" style="fill:#fadcaa"/>
  <path d="m 260.3,385.8 c 0,0 22.9,23.3 51.9,34.2 29,10.9 70.9,12.1 70.9,12.1 l 6.4,52.7 -177.6,-36.2 z" id="path3100" style="fill:#bad6e2"/>
  <path d="m 413.5,219.6 225.5,228.9 -10.2,9.7 -220.4,-237.5 -6.9,-2.3 c 0,0 -5.1,-1.7 -5.1,-5.1 0,-3.4 -0.6,-9.7 -0.6,-9.7 0,0 11.4,-2.2 14.3,1.2 2.8,3.4 3.4,14.8 3.4,14.8 z" id="path3102" style="fill:#778a8e"/>
  <path d="m 641.3,453.7 a 7.12,7.974 0 0 1 -14.2,0 7.12,7.974 0 1 1 14.2,0 z" id="path3104" style="fill:black"/>
  <path d="m 737.9,267.5 a 45.55,45.55 0 0 1 -91.1,0 45.55,45.55 0 1 1 91.1,0 z" id="path3043" style="fill:#d3cad1;fill-opacity:1;stroke:#b3b3b3;stroke-width:1;stroke-linejoin:round"/>
  <path d="m 735.6,268.2 a 48.52,48.52 0 0 1 -97,0 48.52,48.52 0 1 1 97,0 z" id="path3045" style="fill:#e8e5f2"/>
  <path d="m 731.5,268.2 a 41.56,41.56 0 0 1 -83.1,0 41.56,41.56 0 1 1 83.1,0 z" id="path3880" style="fill:#d3cad1"/>
  <path d="m 695.1,246.6 a 9.26,9.26 0 0 1 -18.5,0 9.26,9.26 0 1 1 18.5,0 z" id="path3047" style="fill:#fffce2"/>
  <path d="m 689.9,245.6 a 5.503,5.503 0 0 1 -11,0 5.503,5.503 0 1 1 11,0 z" id="path3049" style="fill:#b9abac"/>
  <path d="m 716.7,256.1 a 7.15,7.15 0 0 1 -14.3,0 7.15,7.15 0 1 1 14.3,0 z" id="path3051" style="fill:#333"/>
  <path d="m 659.1,277.2 20,-20.4" id="path3059" style="fill:none;stroke:white;stroke-width:4"/>
  <path d="m 674.2,279.7 20,-20.5" id="path3061" style="fill:none;stroke:white;stroke-width:4"/>
  <path d="m 687.8,281.1 20,-20.4" id="path3063" style="fill:none;stroke:white;stroke-width:4"/>
  <path d="m 703.9,282.1 20,-20.4" id="path3065" style="fill:none;stroke:white;stroke-width:4"/>
  <path d="m 716.6,290.4 a 7.851,7.851 0 0 1 -15.7,0 7.851,7.851 0 1 1 15.7,0 z" id="path3053" style="fill:#333"/>
  <path d="m 706.5,292.8 a 5.503,5.503 0 0 1 -11,0 5.503,5.503 0 1 1 11,0 z" id="path3055" style="fill:#b9abac"/>
  <path d="m 690.3,281.4 a 7.147,7.147 0 0 1 -14.2,0 7.147,7.147 0 1 1 14.2,0 z" id="path3057" style="fill:#333"/>
</svg>
